<svg width="129" height="21" viewBox="0 0 129 21" fill="none" xmlns="http://www.w3.org/2000/svg">
<path d="M5.25 20.1835H1.64062L2.24219 16.8749L5.44141 16.8886C6.51693 16.8977 7.3737 16.679 8.01172 16.2324C8.65885 15.7766 9.14193 15.1659 9.46094 14.4003C9.77995 13.6256 10.0124 12.7506 10.1582 11.7753L10.5957 8.65813C10.6686 8.08392 10.7188 7.50514 10.7461 6.92181C10.7826 6.33847 10.737 5.80071 10.6094 5.30853C10.4818 4.81634 10.2266 4.41985 9.84375 4.11907C9.47005 3.80918 8.91406 3.64056 8.17578 3.61321L4.44336 3.59954L5.03125 0.277275L8.33984 0.290947C9.54297 0.318291 10.5638 0.564385 11.4023 1.02923C12.2409 1.49407 12.9108 2.11842 13.4121 2.90228C13.9225 3.68613 14.2643 4.5748 14.4375 5.56829C14.6107 6.56178 14.6289 7.6054 14.4922 8.69915L14.0273 11.789C13.8451 12.9648 13.5215 14.0676 13.0566 15.0976C12.6009 16.1184 12.0039 17.0117 11.2656 17.7773C10.5365 18.5338 9.67057 19.1262 8.66797 19.5546C7.67448 19.983 6.53516 20.1926 5.25 20.1835ZM7.35547 0.277275L3.91016 20.1835H0L3.43164 0.277275H7.35547Z" fill="white"/>
<path d="M30.8711 8.68548L30.3789 11.9804C30.2057 13.1015 29.9186 14.1816 29.5176 15.2206C29.1165 16.2506 28.5833 17.162 27.918 17.955C27.2526 18.748 26.446 19.3723 25.498 19.8281C24.5501 20.2747 23.4518 20.4843 22.2031 20.457C21.0091 20.4296 20.0111 20.1744 19.209 19.6913C18.416 19.2083 17.7962 18.5657 17.3496 17.7636C16.903 16.9615 16.6113 16.0637 16.4746 15.0702C16.347 14.0676 16.347 13.0468 16.4746 12.0077L16.9668 8.69915C17.14 7.56894 17.4271 6.48431 17.8281 5.44524C18.2292 4.39707 18.7624 3.45826 19.4277 2.62884C20.1022 1.79941 20.918 1.14772 21.875 0.67376C22.832 0.190687 23.944 -0.0326206 25.2109 0.00383772C26.4232 0.0311815 27.4258 0.300062 28.2188 0.810478C29.0117 1.32089 29.627 1.99537 30.0645 2.83392C30.502 3.66334 30.7799 4.58847 30.8984 5.60931C31.0169 6.62103 31.0078 7.64642 30.8711 8.68548ZM26.5098 12.0077L26.9883 8.63079C27.0521 8.16595 27.0977 7.64186 27.125 7.05853C27.1615 6.46608 27.1296 5.89186 27.0293 5.33587C26.929 4.77076 26.7194 4.30136 26.4004 3.92767C26.0814 3.55397 25.5892 3.35345 24.9238 3.3261C24.1947 3.28965 23.584 3.43548 23.0918 3.7636C22.6087 4.09173 22.2168 4.53379 21.916 5.08978C21.6152 5.63665 21.3828 6.22454 21.2188 6.85345C21.0638 7.48235 20.9408 8.08392 20.8496 8.65813L20.3848 12.0214C20.321 12.4954 20.2754 13.0195 20.248 13.5937C20.2207 14.1679 20.2617 14.7239 20.3711 15.2617C20.4896 15.7903 20.7083 16.2324 21.0273 16.5878C21.3555 16.9342 21.8522 17.121 22.5176 17.1484C23.2194 17.1848 23.8073 17.0481 24.2812 16.7382C24.7552 16.4192 25.1426 15.9999 25.4434 15.4804C25.7441 14.9609 25.9766 14.3958 26.1406 13.7851C26.3047 13.1653 26.4277 12.5728 26.5098 12.0077Z" fill="white"/>
<path d="M47.2637 14.8378C47.3184 14.4277 47.3047 14.0722 47.2227 13.7714C47.1497 13.4706 47.013 13.2063 46.8125 12.9784C46.6211 12.7415 46.3841 12.5318 46.1016 12.3495C45.819 12.1581 45.5 11.9804 45.1445 11.8163C44.4883 11.4973 43.8776 11.1464 43.3125 10.7636C42.7474 10.3808 42.2461 9.94785 41.8086 9.46478C41.3802 8.9817 41.0566 8.43027 40.8379 7.81048C40.6191 7.18157 40.5371 6.47519 40.5918 5.69134C40.6556 4.79811 40.8835 3.99603 41.2754 3.28509C41.6673 2.57415 42.1777 1.97259 42.8066 1.4804C43.4355 0.979098 44.1419 0.6054 44.9258 0.359306C45.7096 0.104098 46.5299 -0.0143914 47.3867 0.00383772C48.5898 0.0311815 49.5924 0.322848 50.3945 0.878838C51.2057 1.42571 51.8073 2.15944 52.1992 3.08001C52.6003 3.99147 52.7826 5.01686 52.7461 6.15618L48.8496 6.14251C48.877 5.70501 48.8496 5.26295 48.7676 4.81634C48.6947 4.36972 48.5215 4.00514 48.248 3.72259C47.9837 3.43092 47.5781 3.28053 47.0312 3.27142C46.5482 3.27142 46.1243 3.38079 45.7598 3.59954C45.3952 3.80918 45.099 4.09629 44.8711 4.46087C44.6432 4.82545 44.4974 5.23561 44.4336 5.69134C44.388 6.04681 44.4245 6.36582 44.543 6.64837C44.6706 6.93092 44.8438 7.18613 45.0625 7.41399C45.2904 7.63274 45.5456 7.83326 45.8281 8.01556C46.1107 8.19785 46.3932 8.34824 46.6758 8.46673C47.3594 8.80397 47.9883 9.16855 48.5625 9.56048C49.1458 9.94329 49.638 10.3853 50.0391 10.8867C50.4492 11.3788 50.7454 11.9485 50.9277 12.5956C51.1191 13.2428 51.1875 13.9811 51.1328 14.8105C51.0599 15.7311 50.8366 16.5422 50.4629 17.2441C50.0983 17.9459 49.6152 18.5429 49.0137 19.0351C48.4121 19.5182 47.724 19.8827 46.9492 20.1288C46.1745 20.3749 45.3451 20.4889 44.4609 20.4706C43.513 20.4433 42.6654 20.2656 41.918 19.9374C41.1706 19.6002 40.5417 19.1399 40.0312 18.5566C39.5299 17.9641 39.1562 17.2714 38.9102 16.4784C38.6641 15.6764 38.5684 14.815 38.623 13.8945L42.5195 13.9081C42.4922 14.3365 42.4967 14.7512 42.5332 15.1523C42.5697 15.5533 42.6699 15.9042 42.834 16.205C42.998 16.5058 43.235 16.7473 43.5449 16.9296C43.8548 17.1119 44.265 17.2031 44.7754 17.2031C45.2585 17.2031 45.6732 17.1028 46.0195 16.9023C46.3659 16.6926 46.6439 16.4101 46.8535 16.0546C47.0632 15.6992 47.1999 15.2936 47.2637 14.8378Z" fill="white"/>
<path d="M60.8262 13.1835L56.6289 13.1699L57.2168 9.84759L60.9902 9.87493C61.61 9.86582 62.1296 9.71998 62.5488 9.43743C62.9772 9.14576 63.3099 8.77207 63.5469 8.31634C63.793 7.85149 63.957 7.33652 64.0391 6.77142C64.0938 6.35214 64.0983 5.90553 64.0527 5.43157C64.0072 4.9485 63.8613 4.53834 63.6152 4.2011C63.3783 3.85475 62.9954 3.66334 62.4668 3.62688L59.5684 3.59954L56.6973 20.1835H52.8008L56.2324 0.277275L62.6445 0.290947C63.8568 0.327405 64.8776 0.637301 65.707 1.22063C66.5456 1.79485 67.1562 2.56504 67.5391 3.53118C67.931 4.49733 68.0768 5.56829 67.9766 6.74407C67.8581 8.05657 67.4753 9.1959 66.8281 10.162C66.1901 11.1191 65.3561 11.8665 64.3262 12.4042C63.2962 12.9329 62.1296 13.1926 60.8262 13.1835Z" fill="white"/>
<path d="M83.7812 8.68548L83.2891 11.9804C83.1159 13.1015 82.8288 14.1816 82.4277 15.2206C82.0267 16.2506 81.4935 17.162 80.8281 17.955C80.1628 18.748 79.3561 19.3723 78.4082 19.8281C77.4603 20.2747 76.362 20.4843 75.1133 20.457C73.9193 20.4296 72.9212 20.1744 72.1191 19.6913C71.3262 19.2083 70.7064 18.5657 70.2598 17.7636C69.8131 16.9615 69.5215 16.0637 69.3848 15.0702C69.2572 14.0676 69.2572 13.0468 69.3848 12.0077L69.877 8.69915C70.0501 7.56894 70.3372 6.48431 70.7383 5.44524C71.1393 4.39707 71.6725 3.45826 72.3379 2.62884C73.0124 1.79941 73.8281 1.14772 74.7852 0.67376C75.7422 0.190687 76.8542 -0.0326206 78.1211 0.00383772C79.3333 0.0311815 80.3359 0.300062 81.1289 0.810478C81.9219 1.32089 82.5371 1.99537 82.9746 2.83392C83.4121 3.66334 83.6901 4.58847 83.8086 5.60931C83.9271 6.62103 83.918 7.64642 83.7812 8.68548ZM79.4199 12.0077L79.8984 8.63079C79.9622 8.16595 80.0078 7.64186 80.0352 7.05853C80.0716 6.46608 80.0397 5.89186 79.9395 5.33587C79.8392 4.77076 79.6296 4.30136 79.3105 3.92767C78.9915 3.55397 78.4994 3.35345 77.834 3.3261C77.1048 3.28965 76.4941 3.43548 76.002 3.7636C75.5189 4.09173 75.127 4.53379 74.8262 5.08978C74.5254 5.63665 74.293 6.22454 74.1289 6.85345C73.974 7.48235 73.8509 8.08392 73.7598 8.65813L73.2949 12.0214C73.2311 12.4954 73.1855 13.0195 73.1582 13.5937C73.1309 14.1679 73.1719 14.7239 73.2812 15.2617C73.3997 15.7903 73.6185 16.2324 73.9375 16.5878C74.2656 16.9342 74.7624 17.121 75.4277 17.1484C76.1296 17.1848 76.7174 17.0481 77.1914 16.7382C77.6654 16.4192 78.0527 15.9999 78.3535 15.4804C78.6543 14.9609 78.8867 14.3958 79.0508 13.7851C79.2148 13.1653 79.3379 12.5728 79.4199 12.0077Z" fill="white"/>
<path d="M88.1016 0.277275L94.1172 0.290947C95.3112 0.327405 96.3138 0.587171 97.125 1.07024C97.9453 1.5442 98.5514 2.21868 98.9434 3.09368C99.3444 3.95957 99.4948 4.98951 99.3945 6.18353C99.3125 7.17701 99.0983 8.04746 98.752 8.79485C98.4147 9.53313 97.9408 10.1803 97.3301 10.7363C96.7194 11.2831 95.972 11.7617 95.0879 12.1718L93.7617 12.8827H88.5391L89.1133 9.56048L92.4219 9.58782C93.0326 9.57871 93.5521 9.43743 93.9805 9.16399C94.4089 8.89056 94.7461 8.52142 94.9922 8.05657C95.2474 7.59173 95.4115 7.07675 95.4844 6.51165C95.5391 6.08326 95.5436 5.65032 95.498 5.21282C95.4616 4.77532 95.3249 4.40618 95.0879 4.1054C94.8509 3.80462 94.4727 3.64056 93.9531 3.61321L91.4512 3.59954L88.5801 20.1835H84.6699L88.1016 0.277275ZM93.5156 20.1835L91.5059 11.3105L95.4434 11.2968L97.6855 19.9648V20.1835H93.5156Z" fill="white"/>
<path d="M110.182 0.277275L106.723 20.1835H102.826L106.285 0.277275H110.182ZM114.967 0.277275L114.393 3.59954H101.008L101.582 0.277275H114.967Z" fill="white"/>
<path d="M122.65 14.8378C122.705 14.4277 122.691 14.0722 122.609 13.7714C122.536 13.4706 122.4 13.2063 122.199 12.9784C122.008 12.7415 121.771 12.5318 121.488 12.3495C121.206 12.1581 120.887 11.9804 120.531 11.8163C119.875 11.4973 119.264 11.1464 118.699 10.7636C118.134 10.3808 117.633 9.94785 117.195 9.46478C116.767 8.9817 116.443 8.43027 116.225 7.81048C116.006 7.18157 115.924 6.47519 115.979 5.69134C116.042 4.79811 116.27 3.99603 116.662 3.28509C117.054 2.57415 117.564 1.97259 118.193 1.4804C118.822 0.979098 119.529 0.6054 120.312 0.359306C121.096 0.104098 121.917 -0.0143914 122.773 0.00383772C123.977 0.0311815 124.979 0.322848 125.781 0.878838C126.592 1.42571 127.194 2.15944 127.586 3.08001C127.987 3.99147 128.169 5.01686 128.133 6.15618L124.236 6.14251C124.264 5.70501 124.236 5.26295 124.154 4.81634C124.081 4.36972 123.908 4.00514 123.635 3.72259C123.37 3.43092 122.965 3.28053 122.418 3.27142C121.935 3.27142 121.511 3.38079 121.146 3.59954C120.782 3.80918 120.486 4.09629 120.258 4.46087C120.03 4.82545 119.884 5.23561 119.82 5.69134C119.775 6.04681 119.811 6.36582 119.93 6.64837C120.057 6.93092 120.23 7.18613 120.449 7.41399C120.677 7.63274 120.932 7.83326 121.215 8.01556C121.497 8.19785 121.78 8.34824 122.062 8.46673C122.746 8.80397 123.375 9.16855 123.949 9.56048C124.533 9.94329 125.025 10.3853 125.426 10.8867C125.836 11.3788 126.132 11.9485 126.314 12.5956C126.506 13.2428 126.574 13.9811 126.52 14.8105C126.447 15.7311 126.223 16.5422 125.85 17.2441C125.485 17.9459 125.002 18.5429 124.4 19.0351C123.799 19.5182 123.111 19.8827 122.336 20.1288C121.561 20.3749 120.732 20.4889 119.848 20.4706C118.9 20.4433 118.052 20.2656 117.305 19.9374C116.557 19.6002 115.928 19.1399 115.418 18.5566C114.917 17.9641 114.543 17.2714 114.297 16.4784C114.051 15.6764 113.955 14.815 114.01 13.8945L117.906 13.9081C117.879 14.3365 117.883 14.7512 117.92 15.1523C117.956 15.5533 118.057 15.9042 118.221 16.205C118.385 16.5058 118.622 16.7473 118.932 16.9296C119.242 17.1119 119.652 17.2031 120.162 17.2031C120.645 17.2031 121.06 17.1028 121.406 16.9023C121.753 16.6926 122.031 16.4101 122.24 16.0546C122.45 15.6992 122.587 15.2936 122.65 14.8378Z" fill="white"/>
</svg>
