<svg width="17" height="20" viewBox="0 0 17 20" fill="none" xmlns="http://www.w3.org/2000/svg">
<path d="M3.70837 5.66667C3.70837 3.0203 5.85368 0.875 8.50004 0.875C11.1464 0.875 13.2917 3.0203 13.2917 5.66667C13.2917 8.31303 11.1464 10.4583 8.50004 10.4583C5.85368 10.4583 3.70837 8.31303 3.70837 5.66667ZM8.50004 8.54167C10.0879 8.54167 11.375 7.25449 11.375 5.66667C11.375 4.07885 10.0879 2.79167 8.50004 2.79167C6.91222 2.79167 5.62504 4.07885 5.62504 5.66667C5.62504 7.25449 6.91222 8.54167 8.50004 8.54167Z" fill="#9196FF"/>
<path d="M3.07889 13.6622C1.64111 15.1 0.833374 17.05 0.833374 19.0833H2.75004C2.75004 17.5583 3.35584 16.0958 4.43418 15.0175C5.51251 13.9391 6.97505 13.3333 8.50004 13.3333C10.025 13.3333 11.4876 13.9391 12.5659 15.0175C13.6442 16.0958 14.25 17.5583 14.25 19.0833H16.1667C16.1667 17.05 15.359 15.1 13.9212 13.6622C12.4834 12.2244 10.5334 11.4167 8.50004 11.4167C6.46671 11.4167 4.51667 12.2244 3.07889 13.6622Z" fill="#9196FF"/>
</svg>
